# xmcd
#
# Track frame offsets:
#       150
#       2839
#       19273
#       38622
#       50947
#       66315
#       101598
#       144653
#       174547
#       205502
#       221495
#       243320
#       330377
#
# Disc length: 4678 seconds
#
# Revision: 0
# Processed by: cddbd v1.5.1PL2 Copyright (c) Steve Scherf et al.
# Submitted via: CD-DA_X-Tractor v0.21
#
DISCID=b612440d
DTITLE=Robert Cray with Albert Collin - In Concert
DYEAR=1999
DGENRE=Blues
TTITLE0=Intro - The Chicken
TTITLE1=That Will Never Do
TTITLE2=I've Gotta Take A Chance
TTITLE3=One More Kiss
TTITLE4=I'm So Satisfied
TTITLE5=A. Collins Intro B. Don't Lose Your Cool
TTITLE6=Angel of Mercy
TTITLE7=That Ain't The Way To Do It
TTITLE8=I Don't Want You Cuttin' Off My Hair
TTITLE9=Don't Want No Woman
TTITLE10=Watch Me Baby
TTITLE11=Collins Instrumental Jam
TTITLE12=Alberts Alley
EXTD=
EXTT0=
EXTT1=
EXTT2=
EXTT3=
EXTT4=
EXTT5=
EXTT6=
EXTT7=
EXTT8=
EXTT9=
EXTT10=
EXTT11=
EXTT12=
PLAYORDER=
